<svg viewBox="0 0 126.53 107.13" xmlns="http://www.w3.org/2000/svg"><g fill="#7dc6e5"><path d="m58.52 5.68c-9.44-12.52-28.85-2.43-25.19 12.42-11.01-5.06-20.04 4.17-25.37 12.82-14.26 23.13-5.38 36.1-3.6 60.26.47 6.39-1.77 14.58 7.3 15.65 5.92.7 7.58-.3 12.57-1.8 2.31-.7 4.8-.05 6.62-2.38 3.39-4.35-1.86-7.02-1.94-9.95-.02-.72.45-1.6.45-2.5 0-7.63.13-15.14.48-22.72 3.97 1.05 7.35-.25 9.49-3.74.78-3.64.08-4.32.08-4.32l-4.9-9.65c4.61-6.88 8.96-13.96 6.82-22.68 13.29 6.18 26.05-9.65 17.19-21.41zm-31.18 94.72-1.93-.06-3.1-6.68c1.04-7.4.74-15.03 1.54-22.43.24-2.17.29-5.21 1.75-6.74l-.77 29.69c.05 2.43 2.93 3.7 2.51 6.22zm5.74-56.86 2.18-10.12c-3.83-4.57-5.22 2.97-5.88 5.92-.96 4.29-1.62 6.01.22 10.18 1.28 2.91 6.84 10.26 5.49 12.98-.73 1.45-2.92 1.11-4.12.61-2.02-.84-10.02-13.07-10.51-15.44-.92-4.52 2.73-16.92 2.16-18.08-.63-1.26-2.8-1.27-3.65-.39-1.3 1.33-3.29 15.64-2.98 17.96.53 4.04 6.87 12 6.87 13.1 0 .67-1.67 2.25-2.12 3.38-1.43 3.59-2.28 20.25-2.41 25.02-.05 2.01-.28 5.7.05 7.48.13.73 4.77 6.26 2.22 6.26h-9.99c-.69-.2-1.59-1.98-1.72-2.77-.88-5.57-.42-12.51-1.09-18.37-1.22-10.73-5.41-20.41-3.2-31.25 1.88-9.23 11.39-29.29 22.49-29.31 11.91-.01 13.09 15.95 5.99 22.84zm6.5-22.94c-8.38-9.85 6.17-22.43 15.05-13.29 9.13 9.4-5.84 24.13-15.05 13.29z"/><path d="m125.49 48.03c-3.15-13.14-15.92-37.18-32.71-29.92 3.54-13.35-12.24-23.74-22.99-14.72-12.72 10.67.34 30.58 14.99 23.69-2.05 8.69 2.36 15.74 6.82 22.69l-5.15 9.75s-.46 3.06.62 4.44c.7.46 1.08 1.64 1.76 2.23 2.32 2.01 4.59 2.03 7.44 1.3.41 7.23.42 14.43.48 21.71.01 1.07.55 2.08.53 2.99-.04 3.35-4.78 5.32-2.44 9.89 1.74 3.41 4.62 2.19 7.07 2.91 1.35.4 1.92 1.61 4.61 1.89 6.54.67 14.22.57 15.17-7.28.72-5.97.33-12.64 1.12-18.83 1.49-11.86 5.64-20.4 2.68-32.74zm-51.66-25.22c-8.52-4.64-5.34-17.55 3.85-18.55 3.41-.37 6.92 1.08 9.02 3.71 6.82 8.57-2.83 20.32-12.87 14.84zm26.88 77.53-1.94.06c-.64-2.19 1.56-3.24 2.12-4.61 1.18-2.91 0-23.21-.1-28.08-.03-1.17-1.37-3.63.47-3.22 1.76 9.57 1.37 19.48 2.53 29.18zm17.6-17.58c-.61 5.42-.28 11.65-1.09 16.86-.16.99-1.25 2.78-2.22 2.78-2.05 0-8.08.41-9.49 0-2.86-.85 3.34-6.01 2.71-7.67-1.32-9.09-.89-18.89-2.02-27.94-.32-2.62-1.54-4.44-2.85-6.62 2.11-4.07 6.28-8.21 6.86-12.93.36-2.86-1.41-14.13-2.58-16.78-1.09-2.45-4.06-2.35-4.26-.04-.2 2.38 2.15 8.65 2.38 11.88.11 1.45.16 3.53-.03 4.94-.37 2.61-7.56 13.59-9.69 15.27-1.92 1.51-5.12 1.67-5.3-1.26-.21-3.53 7.16-10.92 7.08-16.46-.03-1.95-2.35-11.33-3.56-12.45-.36-.33-.85-.55-1.32-.69-4.07-.34-.1 8.76.22 10.77.08.53.53 1.74-.37 1.62-4.71-6.84-7.02-19.5 2.99-22.68 11.9-3.79 21.91 15.54 24.73 24.67 4.11 13.31-.72 23.62-2.19 36.73z"/></g></svg>