<svg viewBox="0 0 102.83 121.84" xmlns="http://www.w3.org/2000/svg"><path d="m50.55 0h2.13c10.44 6.49 21.99 11.62 33.94 14.66 3.61.92 11.73 1.74 14.42 3.03 1.24.59 1.58 1.87 1.56 3.16-.86 29.11 5.4 55.5-15.82 78.96-7.15 7.91-22.47 18.48-32.67 21.56-4.09 1.23-5.77-.14-9.42-1.7-17.08-7.31-33.95-21.43-40.49-39.2-6.88-18.71-2.97-40.05-4.04-59.62.18-1.97.31-2.71 2.27-3.39 4.52-1.56 11.6-2.12 16.73-3.56 11.09-3.11 21.48-8.14 31.39-13.9zm46.34 22.54c-15.98-2.31-31.34-8.13-45.11-16.42-14.47 7.7-29.43 14.36-45.91 16.42.93 20.04-3.26 41.43 5.56 60.14 7.61 16.14 23.53 27.53 39.95 33.58 19.63-7.33 37.35-21.21 43.3-42.02 4.59-16.06 1.17-35.06 2.21-51.7z" fill="#7dc6e5"/></svg>