<svg viewBox="0 0 118.09 118.7" xmlns="http://www.w3.org/2000/svg"><path d="m35.49 72.11c15.05-24.27 35.27-48.68 58.89-65.09 5.43-3.78 12.98-9.52 19.66-5.85 10.16 5.59-1.49 21.87-5.7 28.25-14.73 22.29-34.73 41.73-56.02 57.74-.61 1.23.33 3.54.3 5.24-.43 21.02-24.38 28.95-42.1 25.52-2.19-.42-9.6-2.47-10.27-4.7-1.42-4.73 3.98-4.64 6.84-6.92 5.3-4.23 3.93-13.87 5.9-20.03 3.09-9.64 12.65-14.97 22.52-14.17zm73.79-65.48c-2.37-.09-12.04 6.6-14.41 8.36-14.69 10.9-27.6 25.14-39.06 39.3l-.02 1c4.27 3.22 8.03 6.93 11.52 10.94 11.76-11.21 23.24-23.39 32.63-36.71 2.3-3.27 12.29-18.09 11.51-21.24-.33-.74-1.38-1.61-2.17-1.64zm-67.18 68.06 7.66 5.96c2.93-2.77 6.95-4.95 9.82-7.68.77-.73 2.24-1.76 1.94-2.9-.24-.91-9.18-9.42-10.11-9.27l-9.3 13.88zm-.19 8.17c-6.98-7.14-18.64-4.19-22.19 4.67-1.14 2.86-1.45 4.89 1.61 6.64 4.36 2.49 7.02-3.04 11.4-1.42s3 5.47 5.1 7.39 5.11 1.07 6.28-1.23c2.6-5.09 1.8-11.96-2.2-16.05z" fill="#7dc6e5"/></svg>