<svg viewBox="0 0 190.87 144.66" xmlns="http://www.w3.org/2000/svg"><path d="m101.03 37.51c-.57.1-1.25-.21-1.56-.74-.56-.95-1.26-3.91-1.86-5.27-1.54-3.47-3.85-7.03-6.62-9.42l-2.52 10.36 2.11 3.92c-7.28-.11-14.66.75-21.59 3.21-.47 0 1.01-5.1.15-5.71-4.38-3.76-8.86-7.39-13.63-10.56l-17.78 3.29c-2.08 5.86-4.57 11.58-6.04 17.68l10.59 13.95c-.65.38-1.61 1.51-2.12 2.21-3.21 4.39-5.96 9.65-7.52 15.01l-14.58-5.5c-.43.09-5.76 6.55-5.82 7.11-.19 2.03 5.95 8.96 7.52 10.49 2.99 2.92 6.33 5.23 10.08 6.84l.66 6.13c-11.93-4.77-21.4-15.36-26.52-27.88-14-34.22 11.07-67.61 42.52-72.09 23.43-3.34 47.71 8.87 57.44 32.76 0 .29-3.04 3.19-2.91 4.2zm-35.39-31.76c-8.76-1.67-18.05-1.83-26.56 1.32-.28.1-1.05.02-.8.57.23.51.78.42 1.19.46 3.97.39 8.6.17 12.63.26 1.31.03 3.24.59 4.56.46s6.63-2.01 8.23-2.57c.28-.1.81-.07.75-.49zm20.86 25.59 2.42-10.54c-.06-.31-3.56-4.07-4.09-4.56-3.35-3.18-11.39-8.65-15.83-8.44-1.19.06-10.83 2.01-11.16 2.51l-.65 11.18c3.28 2.99 7.1 5.27 10.46 8.18.85.73 2.19 2.64 3.1 3.04.69.3 1.77.19 2.54.15 3.64-.16 8.14-.7 11.8-1.17.48-.06.96-.17 1.41-.36zm-50.37-23.26c-4.74 1.79-9.51 4-13.14 7.87l6.37-.8c1.95-2.15 4.25-3.96 6.24-6.04.29-.3.63-.51.53-1.02zm-8.91 9.41c-1.81.21-5.63 1.03-7.36 1.63-2.52.87-6.75 6.86-8.25 9.4-2.39 4.04-3.95 7.92-3.59 12.89l7.72 7.96h1.09s12.42-5.48 12.42-5.48c.81-.56 1.45-4.03 1.87-5.26 1.41-4.14 3.09-8.16 4.5-12.3l-6.17-8.76c-.53-.35-1.59-.14-2.21-.07zm-20.73 25.87c-.73.18-1.64 5.63-1.71 6.6-.68 8.4 1.52 18.02 6 24.89l5.76-6.85-1.47-16.46-8.58-8.17z" fill="#3b4c68"/><path d="m84.63 39.66c36.83-2.41 70.62 34.39 52.68 74.17-20.2 44.81-89.83 39.84-102.33-8.72-9.11-35.39 18.79-63.43 49.65-65.45zm-4.77 99.04h4.96c5.04 0 15.97-16.86 18.65-21.42 4.8-8.17 8.51-17.71 15.43-24.05.61-.14.33.29.43.68 1.28 5.14 2.17 10.74 2.39 16.07s-.17 11.02-.54 16.48c2.47-2.19 3.72-3.93 4.02-7.44.4-4.67.18-10.16-.3-14.83-.38-3.67-1.15-7.36-1.84-10.97.9-.74 6.04 4.04 6.84 4.95 1.94 2.18 4.09 5.35 4.16 8.46.71.09.42-.02.54-.43.81-2.91.9-5.15-.59-7.83-2.3-4.13-6.78-7.77-11.09-8.94-.19-.2-1.68-5.15-1.7-5.46-.01-.25.2-.67.36-.67h6.17c1.47 0 5.26 1.74 6.44 2.91.31-.57 1.94-3.04 1.63-3.51-4.73-2.31-10.24-3.69-15.29-1.76l-2.32-5.96.04-.41c3.04-1.04 6.64-3.68 8.07-6.83 1.14-2.52 1.95-5.78-1.12-6.9-.05 5.2-4.45 9.29-8.58 11.08l-1.04-2.44c3.41-3.11 4.5-8.4 2.61-12.83-.27-.64-1.45-2.57-1.98-2.8s-.41.3-.34.66c.58 3.13 1.15 5.47.41 8.73-.17.77-1.75 4.79-2.47 4.6-3.47-5.98-7.76-11.37-12.89-15.74-5.45-4.64-11.29-8.68-18.47-7.55-.3.05-1.25.11-1.24.54 12.16 3.65 23.76 13.62 29.78 25.66-6.4.21-12.25-2.9-18.24-4.81-11.56-3.68-23.48-5.24-35.46-2.97-2.77.52-9.47 2.15-11.36 4.27l-2.54 4.38c13.83-6.8 29.71-6.97 44.32-3.12 5.61 1.48 11.24 4.15 16.8 5.36 2.66.58 5.15.71 7.86.86l2.92 7.69c-4.42-3.52-10.01.48-14.22 2.76-11.82 6.42-22.8 13.98-35.14 19.54-7.03 3.17-14.84 6.33-22.53 6.27-.12.51.19.58.4.88.55.78 2.39 2.81 3.21 2.93 3.1.46 11.05-2.29 14.24-3.51 14.55-5.57 27.76-14.66 41.26-22.51 4.08-2.37 8.33-5.39 13.06-5.66l2.38 7.41c-5.23 2.98-8.76 8.77-11.88 14.06-6.55 11.11-11.96 23.34-22.18 31.29-1.31 1.02-2.8 1.68-4 2.79z" fill="#5f8db8"/><path d="m142.4 109.58c4.4.49 9.14-.03 13.26-1.77.22-3.11-.53-6.25-.95-9.34-3.3 1.61-6.81 2.84-10.46 2.91l.79-3.66c2.36-.27 4.73-.81 6.91-1.82.41-.19 1.47-.54 1.43-1.05-.87-2.13-2.83-8.23-4.41-9.53-.89-.73-2.82 1.24-4.04.62-.91-3.14-.29-2.93 2.01-4.24 0-.39-3.15-3.66-3.6-4.54-.93-1.83-1.59-5.02-2.52-7.17-.55-1.26-2.38-3.99-2.62-5.05-.19-.83 1.55-5.19 1.99-6.32 5.16-13.32 13.78-22.38 27.02-25.45.37-.09.78.25.66-.44-4.54-3.09-10.61-7.44-16.2-6.82-3.65.41-8.37 3.18-11.36 5.44-6.08 4.59-11.66 11.78-13.76 19.6l-2.91-2.71c3.4-9.28 9.92-17.39 18.02-22.12l4.74-2.57c-6.63-.5-13.46-.85-19.68 2.08-6.54 3.07-10.99 9.54-14.57 15.97l-2.78-.85.85-2.71 5.58-8.94-7.21 6.3-2.49 3.56-2.09-.24c-.19-.18 1.53-2.39 1.74-2.63 2.65-3 5.84-4.88 8.99-7.14.06-.78-.14-.26-.47-.22-.69.08-1.39.18-2.06.39l-5.51 2.46c23.65-21.27 62.84-15.7 78.38 13.94 17.36 33.13-6.7 67.9-39.35 69.58-1.08.06-4.22.22-5.06-.04-.18-.05-.55-.33-.33-.55l2.06-4.91zm41.28-30.07c.69-.48.91-1.89 1.11-2.73 2.96-12.8-.39-26.57-8.61-36.2-4.26-4.99-6.28-4.95-12.15-2.69-.39.15-4.26 1.84-3.96 2.25 5.13 2.65 9.74 7.44 13.25 12.28 5.56 7.67 9.87 17.2 10.36 27.08zm-13.95 20.7c.41.08.62-.04.95-.27 2.48-1.77 8.94-8.93 9.65-11.96.79-3.35-.23-10.86-1.02-14.36-2.54-11.22-10.46-23.71-19.53-29.8-3.53-2.37-3.62-1.77-6.69 1.14-1.34 1.27-6.79 7.27-6.46 9.01 14.66 9.01 25.23 27.58 23.09 46.24zm-10.46 6.42c.26.3 6.36-2.62 6.65-3.7 2.1-13.58-2.36-27.37-10.94-37.27-1.9-2.19-6.95-7.15-9.41-8.14-.34-.14-.66-.28-1.03-.14l-3.39 11.06c2.95 5.03 7.18 8.96 10.3 13.9 4.48 7.11 7.5 15.61 7.83 24.29z" fill="#7dc6e5"/></svg>