<svg viewBox="0 0 232.03 177.74" xmlns="http://www.w3.org/2000/svg"><path d="m137.16 45.03-10.73 30.66c-.65 1.49-3.84 3.45-5.29 3.45h-20.6l18.31 98.6h-6.45l-7.96-29.48-82.97.13-6.23 29.35h-7.07l14.98-97.98c.06-.86 0-.54-.61-.62-2.23-.32-5.51.53-7.3-1.56-.23-.27-1.24-2.22-1.24-2.39v-29.54l.62-.62zm-114.42 96.1h80.31l-14.82-62.02-53.03.21-12.45 61.81z" fill="#5f8db8"/><path d="m226.62 20.08c4.25-.93 5.56.75 5.39 4.82-.87 21.5-6.1 44.25-7.43 65.88-1.24 6.44-5.91 10.79-12.43 11.49h-66.78c-2.63-.17-3.39-2.79-2.89-5.03-2.4-.3-9.26.98-9.67-2.11-.67-5.12 4.68-9.36 9.46-9.48l65.58.05c5.56.91 6.54 6.08 3.7 10.38 3.81-.14 6.23-3.25 6.85-6.85l3.2-27.69-.58-.86c-5.44 1.56-8.75-3.61-9.1-8.41 1.06-9.63 2.13-19.28 3.1-28.92.55-5.44.16-15.7 3.15-20 1.97-2.82 6.26-4.4 9.4-2.59l-.98 19.3z" fill="#7dc6e5"/><path d="m152.15 134.28h52.86l-6.8-26.21.44-.79h9.26l13.69 65.58h-5.59l-9.63-32.43-56.12.06-8.72 32.37h-5.6l13.32-65.58h8.87l.51.87z" fill="#7dc6e5"/><path d="m151.19 30.58c1.28 1.28 1.24 5.53.44 7.07s-3.1 1.84-4.68 1.98c-5.43.46-11.51-.49-17.09-.45-41.41.26-82.94.7-124.41.45-7.06.53-7.34-10.1-.42-10.02h143.17c.84 0 2.42.4 2.98.97z" fill="#5f8db8"/></svg>