<svg viewBox="0 0 136.97 86.57" xmlns="http://www.w3.org/2000/svg"><g fill="#7dc6e5"><path d="m67.79 10.82c6.76-.36 12.35 1.9 17.78 5.68 18.52-14.53 44.53 1.5 39.88 24.64-2.31 11.49-12.89 23.29-21.45 30.92-3.31 2.95-12.86 10.82-16.5 12.41-.69.3-1.09.58-1.93.61-3.58.16-12.51-8.38-15.94-10.43-3.19 2.44-13.05 11.43-16.48 11.88-2.51.33-4.86-1.77-6.84-3.08-12.73-8.43-34.15-28.17-35.71-44.09-2.3-23.49 23.95-36.66 42.02-22.25 4.21-3.64 9.57-5.99 15.17-6.29zm-11.68 11.51c-13.41 12.91 1.31 31.83 11.25 41.57l-3.92 3.98-.53-.03c-11.79-11.23-25.44-29.08-14.53-45.45-11.15-11.59-31.68-2.06-31.81 13.5-.14 16.12 23.31 35.92 35.73 44.09 12.5-8.37 34.18-26.15 35.52-42.12 1.48-17.67-19.1-27.68-31.7-15.54zm43.06-5.03c-1.79.19-8.96 2.46-9.29 4.17 11.4 18.1-2.34 36.62-15.5 48.85l10.78 7.64c12.06-7.17 32.45-24.65 34.42-39.21 1.62-12-8.29-22.76-20.41-21.44z"/><path d="m23.34.21c2.66-.42 5.02-.52 5.58 2.62 0 3.08-5.9 3.87-8.37 5.05-4.74 2.26-9.29 6.47-11.78 11.16-1.33 2.51-2.29 8.02-3.2 9.27-1.71 2.31-5.44 1.29-5.57-2-.37-10.31 13.48-24.53 23.34-26.1z"/><path d="m108.77 3.68c1.48-2.15 5.7-.6 7.66.07 7.87 2.66 15.47 10.01 18.66 17.68 1.14 2.74 4.28 10.92-1.53 10.36-2.99-.29-3.7-6.6-4.86-9.15-3.67-8.03-11.15-12.68-19.49-14.59-.68-.76-1-3.54-.44-4.37z"/></g></svg>