<svg viewBox="0 0 118.97 105.27" xmlns="http://www.w3.org/2000/svg"><path d="m65.41 29.42c.68-.39 4.68-9.06 5.64-10.56 6.64-10.41 22.8-12.89 31.65-3.85 1.6 1.64 3.11 5.45 4.46 6.51 2.12 1.67 16.49 5.54 10.24 10.19-2.1 1.57-7.81 2.66-10.83 4.65-5.68 3.74-4.99 9.68-6.49 15.46-7.27 28-26.79 38.63-55.09 37.73-1.31.55-8.47 10.31-10.24 12.21-2.78 2.96-3.66 3.72-7.99 3.47-8.5-.48-18.65-6.48-23.99-12.94-1.65-2-4.22-4.76-1.76-7.25 1.08-1.09 11.29-3.38 14-4.47 6.43-2.58 14.42-7.25 19.5-11.94 1.04-.96 4.23-3.71 4-4.98-12.25-3.91-22.89-11.93-29.24-23.18-4.95-8.77-7.55-20.67-6.23-30.66 2.23-16.83 6.67-8.15 14.25-2.27 13.85 10.75 29.34 10.06 42.84 18.55 1.07.67 4.24 3.93 5.28 3.33zm-55.88-19.37v11.71c0 13.93 14.94 29.69 27.34 34.52 4.22 1.64 12.72 1.64 10.04 7.77-1.78 4.05-11.58 12.32-15.46 14.97-7.01 4.8-14.54 7.48-22.41 10.52 2.82 2.95 6.5 5.64 10.3 7.15 2.31.92 8.31 2.91 10.21 1.35 4.22-5.05 8.02-10.59 13.07-14.86 8.06-.63 15.35.03 23.34-2.12 14.56-3.92 23.4-14.34 27.33-28.54 2.69-9.71 1.81-19.44 13.63-23.29-.01-1.46-3.66-2.2-4.76-3.22-1.48-1.37-2.4-4.91-4.41-6.81-4.22-4.01-10.97-4.08-15.99-1.6-6.7 3.31-7.93 11.91-12.58 17.33 1.21 3.23 5.25 12.27.28 13.8-4.12 1.26-4.02-4.84-4.78-7.25-3.93-12.56-20.52-14.72-31.08-18.33-5.04-1.72-10.55-4.09-15.06-6.9-.94-.59-8.66-6.63-9.03-6.19z" fill="#7dc6e5"/></svg>