<svg viewBox="0 0 108.59 110.63" xmlns="http://www.w3.org/2000/svg"><path d="m104.95 1.78c3.84 20.71-11.9 44.52-34.5 42.31-1.6-.16-7.56-2.32-8.16-1.93-.98 2.84-3.41 6.67-3.56 9.67-.05 1.05 0 .64.75.76 3.63.56 5.73-1.32 10.57.4 6.62 2.36 21.34 10.05 27.57 13.81.91.55 2.31 1.24 2.99 2 1.79 2.02 7.8 15.22 7.98 17.96.28 4.06-4.14 14.09-6.74 17.25-2.15 2.62-10.57 5.7-13.94 6-23.04 2.01-48.93-1.55-72.28 0-6.31.34-15.72-11.86-15.63-17.19.06-3.76 7.37-17.82 9.91-21.02 3.16-3.96 23.05-13.7 28.56-15.81 4.01-1.54 8.17-1.72 12.3-2.66l-3.24-7.18c-19.86 9.87-39.37-8.42-41.1-28.27-.62-7.16.07-7.6 6.79-8.66 17.47-2.76 41.36 4.9 40.56 26.16-.15 4-3.1 7.86.97 10.71l3.45-8.23c-9.58-28.34 23.73-43.24 46.75-36.08zm-5.37 4.89c-15.76-2.53-38.37 4.54-36.86 23.95 3.17-3.9 15-16.86 19.67-16.99 3.33-.1 3.47 3.1 1.26 5.27-3.58 3.49-8.35 5.99-12.22 10.22-.93 1.02-5.71 6.53-5.01 7.52.4.57 4.11 1.39 5.02 1.47 16.89 1.55 28.46-16.08 28.14-31.43zm-51.81 28.44c-.78-17.55-20.78-23.15-35.33-19.42 1.22 16.57 14.13 31.41 31.84 25.91.74-.79-6.06-7.91-6.97-8.74-2.3-2.09-9.61-6.28-10.7-7.74-1.29-1.71-.65-3.34 1.09-4.4 2.74-.82 10.88 5.66 13.11 7.65 1.95 1.75 3.52 3.77 5.27 5.7.5.55.74 1.25 1.69 1.04zm-36.19 66.71c.77.72 2.05 1.19 2.95 1.79l72.8.33c1.89-.22 8.57-2.39 9.78-3.68 1.32-1.4 5.64-11.61 5.46-13.44-.08-.76-5.34-11.99-6.05-12.95-.74-1.01-1.47-1.38-2.46-2.03-3.52-2.31-22.42-12.15-25.85-13.03-1.44-.37-9.7-.57-10.26.23-.16.24-.17.51-.22.78-.17.89-.14 5.11.24 5.75.52.86 9.89 5.12 11.95 6.99 1.43 1.29 2.68 3.11 3.25 4.98l-19.43-6.28-6.98 3.29c.46 2.91 4.15 5.04 1.78 8.02l-15.73 9.94 9.91-11.83c-.25-2.86-4.88-5.68-2.67-8.62 1.48-1.97 11.07-5.25 11.61-6.83l.08-5.66c-3.98.63-7.99.95-11.8 2.4-3.33 1.27-22.51 10.73-24.34 12.55-1.44 1.43-8.89 14.93-9.17 16.77-.44 2.91 3.05 8.59 5.13 10.53z" fill="#7dc6e5"/></svg>