<svg viewBox="0 0 210.34 155.65" xmlns="http://www.w3.org/2000/svg"><path d="m120.62 47.31c6.31 12.79 14.44 24.66 23.45 35.67.16 1.11-.17.59-.75.73-4.21 1.04-9.15.46-13.48 1.01-.57.07-1-.2-.73.74.35 1.19 2.34 4.59 3.08 5.9 7.05 12.51 15.82 24.07 25.35 34.77-14.57 2.98-29.5 4.6-44.41 4.49l1 24.45c-5.98.52-12.19.99-18.15.02l.68-24.47c-14.89.14-30.03-.89-44.41-4.73 11.65-11.89 20.53-26.12 28.93-40.41-.35-.48-.65-.65-1.23-.75-3.7-.64-8.86-.45-12.96-1.02-.71-.1-1.47.47-1.26-.72 5.3-6.88 10.6-13.86 15.17-21.25 1.71-2.77 7.01-11.17 7.76-13.69.28-.93-.15-.66-.73-.73-4-.53-7.99 1.3-11.73-.25 7.94-10.55 15.18-21.77 21.54-33.34 1.78-3.23 4.71-11.03 6.66-13.3.63-.73.77-.41 1.18.3 1.85 3.15 3.45 7.73 5.29 11.18 6.45 12.11 13.79 23.84 22.21 34.68.17.76-.59 1.11-1.24 1.23-3.31.6-7.7-1.17-11.23-.49z" fill="#5f8db8"/><g fill="#7dc6e5"><path d="m190.79 63.69h-7.64c-.48 0-1.9-1-2.9-.52-.79.75 6.78 12.57 7.78 14.08 3.32 5.01 7.29 9.64 10.66 14.64l-12.12 1.32c-.09.59.04 1.06.23 1.61 2.04 5.77 13.55 20.75 17.94 25.8.73.84 6.18 5.59 5.54 6.31-12.13 2.5-24.48 4.2-36.89 4.22.06 4.66.37 9.29.53 13.96.03.75 1.26 4.48-.27 4.48h-14.49l.53-17.39-20.03-.53 27.4-4.21-15.49-17.96-13.49-20.24c-.15-1.11.08-.66.79-.77 3.75-.58 7.54-.61 11.32-.54.89-.86-4.34-7.05-5.11-8.16l9.33-16.6-10.27 1.05c-.53-.06-.29-.83-.16-1.21.88-2.56 6.21-9.07 8.02-12.01 5.44-8.85 10.19-18.04 14.8-27.34 7.08 13.9 14.86 27.38 23.98 40.03z"/><path d="m36.67 149.58-.71-.87.99-16.26-.52-1.08c-11.11-.53-22.87-.88-33.66-3.75-.71-.19-3.17-.45-2.72-1.48.37-.86 4.02-3.86 5.01-5 7.23-8.32 13.17-17.63 18.69-27.15l-12.64-2.1 18.43-27.94c.45-1.54-2.11-.28-2.89-.25-1.97.08-4.38.14-6.33 0-.57-.04-1.76.29-1.31-.78s3.75-4.8 4.75-6.31c6.82-10.34 13.44-21.44 17.91-32.94l23.62 39.35-.18 1.23-9.74-1.06c-.69.63 8.17 14.69 9.42 16.16l-5.2 7.79c.27 1.32 5.28.69 6.58.81 1.8.16 3.72.67 5.54.79.13.79-.3 1.36-.62 2.02-3.44 7.06-12.1 18.16-17.32 24.31-3.05 3.59-7.61 7.35-10.26 10.81-.41.53-1.02.67-.78 1.58l27.4 3.7-3.95 1.05h-15.55c-.57 5.1 1.14 10.56.55 15.57-.09.77-.07 1.35-.82 1.82h-13.7z"/></g></svg>